<?xml version="1.0" encoding="UTF-8"?>
<!DOCTYPE svg PUBLIC "-//W3C//DTD SVG 1.1//EN" "http://www.w3.org/Graphics/SVG/1.1/DTD/svg11.dtd">
<!-- Creator: CorelDRAW 2020 (64-Bit Evaluation Version) -->
<svg xmlns="http://www.w3.org/2000/svg" xml:space="preserve" width="300mm" height="70mm" version="1.1" style="shape-rendering:geometricPrecision; text-rendering:geometricPrecision; image-rendering:optimizeQuality; fill-rule:evenodd; clip-rule:evenodd"
viewBox="0 0 30000 7000"
 xmlns:xlink="http://www.w3.org/1999/xlink"
 xmlns:xodm="http://www.corel.com/coreldraw/odm/2003">
 <defs>
  <style type="text/css">
   <![CDATA[
    .str0 {stroke:#BE317F;stroke-width:7.62;stroke-miterlimit:22.9256}
    .fil1 {fill:#BE317F}
    .fil0 {fill:#BE317F;fill-rule:nonzero}
   ]]>
  </style>
 </defs>
 <g id="Camada_x0020_1">
  <metadata id="CorelCorpID_0Corel-Layer"/>
  <g id="_2602767613760">
   <path class="fil0 str0" d="M1587.63 4641.18l0.24 14.42 26.67 0c48.55,0 88.19,38.93 88.91,87.46l0 714.89 -785.05 -838.4 -14.18 0c0,0 13.23,81.7 13.23,180.23l0 749c-0.97,48.3 -40.38,87.23 -88.92,87.23l-26.68 0 -0.22 14.42 297 0 -0.25 -14.42 -26.66 0c-48.31,0 -87.47,-38.21 -88.92,-86.26l0 -717.77 786.25 838.63 13.23 0c0,0 -13.23,-91.07 -13.23,-183.82l0 -744.93c1.45,-48.06 40.62,-86.26 88.92,-86.26l26.68 0 0.24 -14.42 -297.26 0zm1621.79 0l0 14.42 23.56 0c40.85,0 74.26,29.08 76.17,69.44l0 568.78c-0.48,198.74 -128.79,331.37 -321.28,331.37 -183.82,0 -306.14,-140.09 -306.14,-350.1l0 -550.29c1.69,-40.36 35.1,-69.2 75.94,-69.2l23.55 0 0 -14.42 -292.93 0 0 14.42 23.56 0c41.57,0 75.44,30.03 76.17,71.37l0 569.26c0,224.68 160.04,374.38 399.85,374.38 233.09,0 388.57,-150.66 388.57,-376.79l0 -570.21c2.64,-39.66 35.56,-68.01 76.17,-68.01l23.56 0 0 -14.42 -266.75 0zm1008.08 -1.45c-62.47,-0.24 -146.82,-14.89 -173.73,-26.18l0 181.17 14.42 -0.24 0 -25.7c0,-46.14 36.52,-83.86 82.42,-85.79l273.45 0 0 864.83c-2.15,49.02 -42.76,88.19 -92.26,88.19l-18.27 0 -0.24 14.42 315.51 0 -0.24 -14.42 -18.25 0c-49.99,0 -90.61,-39.65 -92.28,-89.38l0 -863.64 273.21 0c45.9,1.93 82.19,39.65 82.19,85.79l0 25.7 14.66 0.24 0 -181.17c-27.16,11.29 -111.27,25.94 -173.74,26.18l-486.85 0zm1241.9 1.45l0.24 14.42 18.26 0c50.47,0 91.32,40.36 92.28,90.59l0 799.96c-1.21,49.74 -42.05,89.86 -92.28,89.86l-18.26 0 -0.24 14.42 315.04 0 -0.25 -14.42 -18.26 0c-50.47,0 -91.31,-40.36 -92.28,-90.59l0 -859.31c18.75,0.72 105.97,-2.88 179.5,1.21 107.18,5.76 175.18,89.38 178.78,219.62 0.97,31.72 -2.88,66.1 -9.12,86.28 -40.85,130 -150.18,147.78 -225.16,149.69 -43.26,1.21 -76.17,0.49 -76.17,0.49l0 13.45c52.87,0 94.92,49.99 132.4,97.33 11.3,13.94 173.74,250.16 190.07,269.85 45.18,54.08 117.28,126.4 251.59,126.4l79.06 0 0 -14.42c-84.82,-0.73 -138.17,-45.66 -196.07,-109.1 -55.75,-61.04 -180.23,-238.37 -180.23,-238.37 -27.88,-39.41 -72.1,-87.22 -103.1,-101.4 138.66,0 244.88,-135.54 244.88,-274.9 0,-168.21 -106.94,-271.06 -281.87,-271.06l-388.81 0zm1715.05 994.83l-18.27 0c-50.47,0 -91.55,-40.36 -92.28,-90.59l0 -800.2c1.21,-49.73 42.05,-89.86 92.28,-89.86l18.27 0 0.24 -14.42 -315.53 0 0.25 14.42 18.26 0c50.23,0 91.07,40.13 92.28,90.1l0 799.96c-0.97,50.23 -41.81,90.59 -92.28,90.59l-18.26 0 -0.25 14.42 315.53 0 -0.24 -14.42zm1535.77 -406.34c-32.69,295.33 -205.93,397.21 -410.67,397.7 -242.46,-5.78 -406.81,-194.65 -406.81,-484.46 0,-286.9 161.47,-478.67 414.99,-478.67 173.24,0 314.54,89.4 358.28,257.84l12.01 0 -29.07 -203.77c-84.34,-55.5 -199.7,-97.31 -340.98,-97.31 -317.2,0 -523.38,210.5 -523.38,523.36 0,318.63 213.39,524.82 514.96,526.25 200.17,0 329.21,-90.59 405.15,-214.59l17.54 -226.35 -12.02 0zm952.33 406.34l-18.27 0c-50.46,0 -91.55,-40.36 -92.27,-90.59l0 -800.2c1.2,-49.73 42.05,-89.86 92.27,-89.86l18.27 0 0.24 -14.42 -315.52 0 0.24 14.42 18.27 0c50.22,0 91.07,40.13 92.27,90.1l0 799.96c-0.96,50.23 -41.81,90.59 -92.27,90.59l-18.27 0 -0.24 14.42 315.52 0 -0.24 -14.42zm1142.89 -1015.01c-306.62,0 -518.33,210.01 -518.33,524.81 0,314.78 211.71,524.8 518.33,524.8 306.62,0 518.09,-210.02 518.09,-524.8 0,-314.8 -211.47,-524.81 -518.09,-524.81zm0 1006.37c-244.63,0 -407.78,-192.49 -407.78,-481.56 0,-289.08 163.15,-481.57 407.78,-481.57 244.62,0 407.54,192.49 407.54,481.57 0,289.07 -162.92,481.56 -407.54,481.56zm1877.96 -986.19l0.24 14.42 26.67 0c48.55,0 88.19,38.93 88.91,87.46l0 714.89 -785.05 -838.4 -14.18 0c0,0 13.23,81.7 13.23,180.23l0 749c-0.97,48.3 -40.38,87.23 -88.92,87.23l-26.68 0 -0.22 14.42 297 0 -0.25 -14.42 -26.66 0c-48.31,0 -87.47,-38.21 -88.92,-86.26l0 -717.77 786.25 838.63 13.23 0c0,0 -13.23,-91.07 -13.23,-183.82l0 -744.93c1.45,-48.06 40.62,-86.26 88.92,-86.26l26.68 0 0.24 -14.42 -297.26 0zm1215.94 994.83l-18.27 0c-50.47,0 -91.55,-40.36 -92.28,-90.59l0 -800.2c1.21,-49.73 42.06,-89.86 92.28,-89.86l18.27 0 0.24 -14.42 -315.52 0 0.24 14.42 18.26 0c50.23,0 91.08,40.13 92.28,90.1l0 799.96c-0.96,50.23 -41.81,90.59 -92.28,90.59l-18.26 0 -0.24 14.42 315.52 0 -0.24 -14.42zm799.49 -673.06c-45.41,-42.07 -58.16,-95.4 -58.16,-132.9 0,-87.95 71.13,-165.81 177.35,-165.81 89.86,0 162.68,56.23 162.2,148.51l13.94 0 0 -159.79 0 -17.06 -57.2 0c-38.2,-8.42 -85.79,-14.9 -123.51,-14.9 -164.36,0 -253.52,122.06 -253.52,243.65 0,55.76 19.96,125.44 78.1,178.79l276.34 256.4c36.05,33.39 56.47,78.08 56.47,134.33 0,115.34 -87.95,187.42 -193.2,193.2 -128.31,7.21 -222.26,-87.95 -207.86,-236.46l-12.73 0c-21.87,64.63 -27.39,156.43 -16.57,200.89 56.71,58.63 173.48,78.81 244.13,78.81 165.81,0 269.87,-110.04 269.87,-269.61 0,-58.16 -14.67,-122.55 -72.34,-175.66l-283.31 -262.39zm1107.31 -323.22c-62.47,-0.24 -146.82,-14.89 -173.72,-26.18l0 181.17 14.41 -0.24 0 -25.7c0,-46.14 36.52,-83.86 82.42,-85.79l273.45 0 0 864.83c-2.15,49.02 -42.76,88.19 -92.26,88.19l-18.27 0 -0.24 14.42 315.51 0 -0.24 -14.42 -18.25 0c-49.99,0 -90.61,-39.65 -92.28,-89.38l0 -863.64 273.21 0c45.9,1.93 82.19,39.65 82.19,85.79l0 25.7 14.66 0.24 0 -181.17c-27.16,11.29 -111.27,25.94 -173.74,26.18l-486.85 0zm1572.55 -18.73l-12.99 0c0,31.72 -53.33,148.51 -53.33,148.51l-326.82 775.91c-29.31,64.16 -82.66,90.59 -126.4,90.59l-12.97 0 0 14.42 290.29 0 0 -14.18 -12.75 0c-37,0 -75.44,-32.44 -55.02,-89.62l96.35 -246.55 388.57 0 92.04 245.58c21.14,57.66 -17.55,90.59 -54.8,90.59l-12.49 0 0 14.18 324.65 0 0 -14.42 -12.27 0c-43.96,0 -97.31,-26.43 -126.63,-90.59l-385.43 -924.42zm-196.57 635.82l181.42 -462.8 173.74 462.8 -355.16 0z"/>
   <g>
    <path class="fil1" d="M27139.11 2447.71c0,-218.11 6.05,-367.51 106.94,-564.49 29.65,-57.89 63.78,-110.82 101.69,-161.08 65.29,-86.57 90.02,-106.44 162.03,-173.78 354.51,-331.53 921.98,-364.78 1335.23,-90.22 29.89,19.87 48.55,35.6 74.96,56.45 85.48,67.53 195.06,186.47 251.58,281.3 53.28,89.38 51.03,80.86 90.56,179.51 14.71,36.7 22.02,64.56 33.84,104.83 69.51,236.89 34.62,563.59 -73.2,778.57 -143.13,285.43 -421.81,522.63 -740.51,588.13 -38.22,7.85 -69.13,13.3 -111.92,19.5 -24.1,3.5 -38.31,2.55 -63.01,2.72 -79.32,0.54 2.9,11.06 -124.32,0.59 -21.13,-1.74 -43.76,0.84 -64.98,-0.76 -31.96,-2.43 -79.31,-10.37 -114.11,-17.32 -86.64,-17.32 -222.92,-64.44 -293.86,-107.7 -195.91,-119.44 -354.42,-266.23 -458.95,-475.43 -33.41,-66.89 -52.48,-112.99 -74.61,-188.14 -17.89,-60.7 -37.36,-156.81 -37.36,-232.68zm2380.59 -81.28l0 59.94 0 6.99 0 7.05c0,257.84 -119.43,542.06 -271.87,728.07 -84.24,102.78 -94.15,107.28 -182.62,189.66 -68.77,64.04 -197.56,141.14 -278.16,181.76 -202.53,101.99 -376.86,119.17 -610.99,119.17 -260.78,0 -491.8,-97.09 -686.38,-233.56 -116.89,-81.98 -146.8,-125.84 -235.63,-216.96 -66.3,-68 -140.31,-191.74 -183.09,-276.77 -112.39,-223.38 -121.7,-381.05 -121.7,-630.01 0,-553.74 471.12,-1078.14 1008.19,-1189.01 188.11,-38.83 377.97,-39.12 566.08,2.57 90.6,20.07 159.04,46.91 235.71,78.23 126.41,51.65 279.91,164.29 371.62,256.23 55.64,55.8 99.33,103.9 146.88,167 80.97,107.4 120.07,188.69 166.81,307.64 14.78,37.6 27.08,78.89 37.22,116.04 33.67,123.41 37.59,212.88 37.93,325.96z"/>
    <path class="fil1" d="M6487.88 2374.73c0,-344.85 145.5,-601.73 319.49,-775.35 481.33,-480.36 1249.26,-431.69 1674.08,133.18 140.28,186.54 204.46,397.1 204.46,656.78 0,453.46 -286.68,829.54 -650,992.34 -60.83,27.27 -129.83,51.68 -203.7,66.46l-248.34 28.36c-58.96,-3.12 -185.85,-15.35 -241.77,-28.89 -209.64,-50.78 -380.67,-143.3 -531.21,-293.76l-122.99 -147.11c-125.46,-189.99 -200.02,-365.73 -200.02,-632.01zm-189.86 -7.3c0,516.81 259.66,867.95 620.62,1109.29 151.47,101.28 408.11,182.35 613.48,182.35 236.6,0 412.88,-20.09 611.06,-119.1 179.85,-89.84 390.76,-260.57 503.36,-431.07 21.18,-32.08 43.39,-61.76 61.04,-92.22 199.82,-344.9 227.57,-823.9 53.88,-1184.48 -38.88,-80.72 -122.39,-218.52 -186.83,-287.63 -15.32,-16.42 -24.36,-22.36 -38.98,-41.3 -47.07,-60.9 -148.44,-140.24 -208.59,-185.62 -345.95,-261.02 -866.29,-302.43 -1262.21,-125.02 -158.89,71.22 -355.13,217.4 -461.24,349.11l-70.59 89.98c-23.1,34.14 -40.78,60.99 -62.94,97.65 -102.89,170.18 -172.06,403.19 -172.06,638.06z"/>
    <path class="fil1" d="M24962.99 1141.47l0 2466.51c0,38.57 82.69,21.91 189.87,21.91l0 -2138.14c25.86,29.74 21.22,31.27 39.59,62.6l118.56 202.61c25.61,46.99 49.69,89.99 76.86,134.82 231.95,382.89 466.34,821.22 698.3,1206.79 53.97,89.73 103.25,178.18 155.13,268.23l117.86 203.31c44.6,74.63 -0.49,59.78 210.37,59.78l0 -2510.3 -182.57 0 0 2123.54c-19.82,-14.52 -207.51,-350.92 -230.56,-389.88l-151.66 -264.38c-25.63,-47.02 -53.04,-88.06 -77.83,-133.87 -24.54,-45.34 -51.79,-86.26 -77.82,-133.85 -117.86,-215.62 -268.9,-454.32 -384.74,-666.35 -38.43,-70.36 -295,-495.82 -304.19,-535.21 -67.56,0 -197.17,-14.7 -197.17,21.88z"/>
    <path class="fil1" d="M16776.98 3629.89l182.57 0 0 -2145.43c6.64,7.64 1.55,1.2 9.3,12.6l535.87 923.96c143.18,262.64 318.97,543.96 467.62,809.76l195.21 337.62c45.61,77.34 1.37,61.49 208.67,61.49l0 -2510.3 -182.57 0 0 2123.54 -231.16 -396.57c-26.29,-48.11 -51.09,-86.18 -77.79,-133.9 -121.21,-216.69 -268.39,-452.6 -382.28,-661.51 -140.09,-257 -347.95,-608.57 -502.16,-870.07 -46.16,-78.28 -0.02,-61.49 -223.28,-61.49l0 2510.3z"/>
    <path class="fil1" d="M12278.7 3447.45l-292.1 0 0 -1364.62c327.34,0 594.21,-20.23 811.71,276.17 172.17,234.59 173.76,551.06 12.11,787.9 -25.81,37.81 -47.56,57.75 -74.69,93.21l-84.46 76.13c-101.79,77.57 -227.27,131.21 -372.57,131.21zm36.5 -1561.64l-328.6 0 0 -576.49 306.7 0c142.55,0 259.69,115.56 274.55,280.32 14.73,163.32 -135.07,296.17 -252.65,296.17zm-511.15 1744.08l503.86 0c235.97,0 415.21,-104.6 534.9,-224.4 143.11,-143.25 230.51,-277.17 267.43,-491.68 42.69,-247.91 -20.87,-455.46 -115.4,-612.56 -48.07,-79.88 -109.39,-140.45 -173.9,-205.67 -41.6,-42.05 -166.81,-138.38 -235.54,-144.09 10.76,-40.26 272.88,-249.86 112.14,-564.5 -34.8,-68.12 -74.87,-114.07 -131.74,-160.26 -13.11,-10.66 -18.71,-16.44 -32.79,-25.61 -24.68,-16.08 -45.76,-29.06 -75.77,-41.04 -60.47,-24.16 -118.7,-40.49 -200.44,-40.49l-452.75 0 0 2510.3z"/>
    <path class="fil1" d="M15725.43 2586.36l-438.14 0 0 -1277.04 408.94 0c166.47,0 325.1,72.87 436.45,184.12 16.61,16.61 19.08,19.89 34.02,38.98 104.83,133.99 141.31,199.45 151.85,402.08 4.85,93.12 -13.21,182.16 -44.27,258.95 -85.04,210.19 -314.77,392.91 -548.85,392.91zm-628.01 -1444.89l0 2488.42 189.87 0 0 -853.79 408.94 0c20.15,0 31.74,28.84 42.38,45.2 171.05,262.85 349.81,554.74 519.9,808.59l226.38 0c-165.3,-246.69 -333.72,-522.49 -499.49,-770.61 -25.8,-38.61 -48.98,-72.51 -70.1,-112.39 85.88,-41.17 73.98,-8.72 226.4,-109.42 57.23,-37.81 136.51,-108.7 179.49,-163.62 138.16,-176.57 185.61,-316.26 185.61,-551.55 0,-236.4 -115.55,-433.91 -235.49,-552.79 -63.92,-63.35 -145.11,-126.39 -226.92,-167.29 -83.22,-41.6 -218.16,-82.63 -311.64,-82.63l-613.4 0c-16.84,0 -21.93,5.07 -21.93,21.88z"/>
    <path class="fil1" d="M21406.72 2586.36l-438.14 0 0 -1277.04 408.94 0c161.41,0 280.19,55.61 393.29,146.97 185.28,149.66 261.35,373.08 221.3,613.14 -13.94,83.55 -44,157.64 -88.71,225.16 -58.63,88.54 -153.68,178.88 -248.32,226.18 -64.01,31.98 -152.67,65.59 -248.36,65.59zm-628.01 -1444.89l0 2488.42 189.87 0 0 -853.79 408.94 0c22.04,0 34.61,28.66 43.51,44.07 11.94,20.62 19.86,32.77 33.91,53.67 25.01,37.17 45.16,71.08 68.69,106.49l416.16 649.56 226.37 0 -569.57 -883c63.99,-30.68 137.34,-41.18 227.54,-108.28 35.89,-26.72 60.19,-43.93 91.95,-75.96 28.44,-28.67 57.61,-54.39 83.91,-83.97 104.49,-117.47 188.09,-314.92 188.09,-483.41 0,-201.67 -26.77,-358.65 -144.9,-519.27 -81.1,-110.23 -187.85,-207.7 -312.56,-271.45 -63.26,-32.32 -212.29,-84.96 -302,-84.96l-628.01 0c-16.82,0 -21.9,5.07 -21.9,21.88z"/>
    <path class="fil1" d="M5290.29 2586.36l-445.45 0 0 -1277.04 416.23 0c325.29,0 620.72,290.89 620.72,605.67 0,122.21 -5.12,196.34 -55.9,301.73 -50.16,104.14 -108.43,175.62 -199.6,245.66 -89.47,68.76 -210.45,123.98 -336,123.98zm-628.01 1043.53l182.56 0 0 -853.79 416.23 0c20.75,0 62.94,78.79 75.36,99.83l136.76 213.6c21.6,36.17 44.35,67.2 68.46,106.74l205.76 319.78c15.85,23.63 62.71,91.59 68.64,113.84l226.39 0c-5.81,-21.74 -51.85,-88.71 -65.72,-109.48 -50.71,-75.77 -489.23,-746.02 -496.58,-773.52 30,-14.36 68.46,-23.02 119.34,-48.58 189.08,-94.97 341.23,-250.22 418,-450.68 93.24,-243.48 62.49,-547.14 -83.46,-757 -28.9,-41.53 -58.29,-74.18 -90.89,-113.49 -18.09,-21.82 -29.39,-28.24 -50.05,-44.87 -137.52,-110.59 -299.36,-212.68 -495.49,-212.68l-635.31 0 0 2510.3z"/>
    <path class="fil1" d="M22684.64 3440.16l-43.81 0 0 -2123.55c187.79,0 364.98,20.13 518.35,87.68 69.56,30.63 109.03,50.69 171.02,91.81 144.42,95.78 283.9,271.04 355.07,433.29 125.05,285.08 123.33,601.31 4.07,887.46 -101.88,244.52 -298.96,434.61 -542.51,537.88 -111.94,47.46 -305.26,85.43 -462.19,85.43zm-226.38 189.73c452.98,0 807.22,-22.24 1144.67,-359.41 207.1,-206.94 393.03,-541.92 360.04,-961.83 -11.16,-142.07 -7.69,-148.46 -42.66,-285.75 -19.37,-76.09 -38.1,-116.17 -67.16,-181.01 -44.62,-99.59 -93.92,-175.98 -161.72,-261.62 -52.63,-66.49 -99.14,-115.93 -164.76,-171.05 -63.11,-53.02 -118.94,-93.14 -194.49,-134 -36.48,-19.73 -76.65,-35.53 -116.48,-51.45 -39.89,-15.94 -81.98,-30.55 -125.12,-42.81 -184.02,-52.3 -403.83,-61.37 -632.32,-61.37l0 2510.3z"/>
    <path class="fil1" d="M13447.09 3629.89l1277.92 0 0 -182.44 -1095.37 0 0 -977.86 1095.37 0c0,-107.09 16.67,-189.73 -21.92,-189.73l-1073.45 0 0 -970.54 1095.37 0 0 -189.73 -1277.92 0 0 2510.3z"/>
    <path class="fil1" d="M3464.68 1564.73c5.48,23.54 10.21,32.1 18.82,54.18l150.06 411.92c13.57,37.76 25.7,71.72 40.08,113.2 14.04,40.47 26.63,77.45 42.4,118.17l84.55 236.6 -679.12 0c8.09,-16.87 11.83,-32.98 19.1,-53.91l324.11 -880.16zm-949.31 2065.16l197.16 0 81.38 -232.48c18.82,-50.31 251.6,-673.71 254.53,-708.88l825.18 0c5.98,25.64 13.16,38.98 20.83,59.43l64.1 176.76c27.84,82.52 57.52,153.72 85.83,235.32l172.45 469.85 189.86 0c-2.58,-31.08 -15.6,-56.2 -26.13,-83.36l-144.9 -402.49c-59.78,-154.51 -120.75,-344.78 -179.49,-492.01 -58.43,-146.49 -118.37,-337.67 -177.39,-486.78 -99.16,-250.57 -197.48,-569.32 -297.26,-819.45l-87.62 -240.81c-19.8,-49.67 -12.96,-63.02 -36.52,-80.27l-114.7 323.22c-99.23,250.73 -197.13,562.26 -296.38,813.03 -22.56,56.99 -38.25,108.28 -60.5,165.76 -107.62,278.21 -251.38,687.13 -354.53,973.85l-87.62 240.81c-7.07,19.64 -26.54,67.52 -28.28,88.5z"/>
    <path class="fil1" d="M19573.81 1572.03l14.61 0c9.76,41.89 25.32,73.63 39.32,113.94l251.85 696.99c12.52,34.8 29.11,86.32 44.74,115.84l-679.12 0c4.14,-49.8 324.01,-871.58 328.6,-926.77zm-942.02 2057.86l197.17 0c26.58,-55.35 137.69,-387.04 173.12,-476.47l129.1 -352.62c8.18,-23.6 12.89,-37.16 21.17,-59.13 9.14,-24.32 9.26,-53.14 34.44,-53.14l788.66 0c28.34,0 35.19,53.19 55.33,105.23l302.49 836.13 197.16 0c-4.93,-21.11 -20.64,-59.92 -28.28,-81.21l-324.93 -893.96c-37.82,-112.08 -79.48,-213.71 -118.65,-326.58l-175.24 -481.62c-19.96,-57.49 -40.64,-111.27 -60.32,-165.95 -39.45,-109.7 -81.48,-215.17 -118.61,-326.61 -17.44,-52.37 -40.25,-105.67 -58.46,-160.5 -12.18,-36.62 -54.94,-137.64 -57.52,-168.74 -24.84,18.18 -114.93,289.7 -125.05,320.18 -35.91,108.13 -80.78,214.45 -118.62,326.6 -37.83,112.08 -79.48,213.7 -118.65,326.58l-594.31 1631.81z"/>
    <path class="fil1" d="M244.32 2309.06c0,309.59 13.19,359.27 117.8,619.3l53.13 100.17c18.64,30.96 40.91,63.64 61.61,91.67 88.08,119.32 187.3,218.47 306.69,306.5 51.85,38.21 133.19,89.9 191.09,115.53 154.7,68.46 318.65,107.99 483.65,116.84l142.42 0c154.97,-8.38 308.83,-44.34 454.76,-109.3 95.85,-42.67 189.65,-100.44 271.11,-166.91 24.43,-19.92 63.1,-49.97 79.24,-74.07 -17.71,-26.44 -40.96,-37.05 -63.99,-60.09 -33.05,-33.05 -51.4,-40.02 -67.44,-63.96 -39.4,26.38 -69.22,57.65 -110.98,86.12 -133.2,90.85 -234.44,145.6 -410.57,180.8 -96.68,19.32 -254.3,30 -359.13,14.77 -245.38,-35.62 -374.86,-96.53 -557.97,-237.84 -59.28,-45.76 -148.56,-142.27 -196.11,-205.36 -101.66,-134.88 -205.45,-355.8 -205.45,-590.12 0,-212.25 10.72,-349.88 104.63,-537.59 78.71,-157.31 221.64,-327.94 370,-425.69 189.81,-125.07 361.37,-189.7 620.73,-189.7 158.32,0 314.73,35.03 426.07,85.04 132.36,59.47 173.86,89.14 279.01,173.62 20.45,16.42 15.35,19.42 39.77,25.94 16.64,-11.14 19.7,-16.61 34.6,-31.1 16.28,-15.85 19.99,-15.85 36.27,-29.44 22.72,-18.97 52.59,-40.95 60.56,-70.82 -25.04,-6.68 -24.13,-13.34 -41.95,-31.05 -197.78,-196.58 -556.67,-311.92 -834.33,-311.92 -350.42,0 -655.49,125.97 -889.07,359.39 -72.77,72.72 -84.81,79.29 -148.93,164.96 -137.58,183.82 -247.22,439.83 -247.22,694.31z"/>
    <path class="fil1" d="M9248.19 1141.47l0 2488.42 1146.48 0 0 -182.44 -956.61 0 0 -2327.86 -167.96 0c-16.82,0 -21.91,5.07 -21.91,21.88z"/>
    <path class="fil1" d="M24334.98 3629.89l189.87 0 0 -2488.42c0,-16.81 -5.09,-21.88 -21.91,-21.88l-167.96 0 0 2510.3z"/>
   </g>
  </g>
 </g>
</svg>
