<?xml version="1.0" encoding="UTF-8"?>
<!DOCTYPE svg PUBLIC "-//W3C//DTD SVG 1.1//EN" "http://www.w3.org/Graphics/SVG/1.1/DTD/svg11.dtd">
<!-- Creator: CorelDRAW 2020 (64-Bit Evaluation Version) -->
<svg xmlns="http://www.w3.org/2000/svg" xml:space="preserve" width="370mm" height="100mm" version="1.1" style="shape-rendering:geometricPrecision; text-rendering:geometricPrecision; image-rendering:optimizeQuality; fill-rule:evenodd; clip-rule:evenodd"
viewBox="0 0 37000 10000"
 xmlns:xlink="http://www.w3.org/1999/xlink"
 xmlns:xodm="http://www.corel.com/coreldraw/odm/2003">
 <defs>
  <style type="text/css">
   <![CDATA[
    .str0 {stroke:#373435;stroke-width:20;stroke-miterlimit:22.9256}
    .str1 {stroke:#BE317F;stroke-width:7.62;stroke-miterlimit:22.9256}
    .fil2 {fill:none}
    .fil1 {fill:#373435}
    .fil4 {fill:#BE317F}
    .fil3 {fill:#BE317F;fill-rule:nonzero}
    .fil0 {fill:url(#id3)}
   ]]>
  </style>
    <clipPath id="id0">
     <path d="M5332.82 9537.8c2008.98,-969.88 2373.85,-4071.72 -92.4,-5505.55 -71.99,-41.85 -263.93,-129.07 -308.3,-164.94 33.68,-25.41 142.17,-60.89 202.37,-92.07 302.62,-156.76 528.61,-430.18 656.06,-752.11 187.7,-474.11 140.82,-1175.04 -37.13,-1648.26 -214.81,-571.15 -672.21,-985.56 -1252.29,-1175.55 -380.37,-124.58 -682.28,-114.77 -1103.92,-114.77 -192.53,0 -2290.96,-12.69 -2423.53,4.99l-0.89 3907.8 -0.29 1233.55c111.79,-153.98 706.65,-812.97 1191.73,-1054.79 135.44,-64.43 274.42,-116.57 411.59,-152.83 315.92,-83.54 503.99,-83.01 847.1,-104.04 -72.67,-69.35 -197.77,-139.88 -276.61,-205.81 -49.17,-41.09 -94.75,-88.78 -130.45,-124.5 -220.49,-220.54 -374.84,-466.15 -460.8,-793.95 -147.51,-562.52 53.74,-1152.02 411.15,-1487.64 360.82,-338.81 971.65,-516.51 1486.82,-264.41 466.08,228.08 718.95,727.09 689.74,1321.91 -262.9,115.45 -833.34,58.37 -1136.04,-125.16 -294.75,-178.69 -518.78,-522.78 -523.99,-861.25 3.17,-2.44 8.23,-9.86 9.82,-6.87l79 -40.58c336.83,-112.86 721.57,96.65 858.71,100.42l-228.38 -183.05c-701.03,-412.37 -1423.6,192.74 -1497.96,1149.04 -41.02,527.18 172.25,909.95 485.02,1168.83 341.72,282.84 671.48,390.63 1119.29,529.14 824.19,254.9 1350.71,920.65 1576.58,1725.35 353.54,1259.61 -323.44,2943.02 -1686.88,3070.94 -268.36,25.18 -518.08,14.09 -747.01,-33.66 -21.32,-3.77 90.67,19.95 -64.31,-12.35 -696.29,-145.12 -1258.69,-617.44 -1482.27,-1295.18 -329.58,-999.02 30.18,-2053.27 921.96,-2604.45 194.45,-120.19 409.98,-195.15 598.32,-238.25 188.35,-43.11 349.52,-54.34 497.6,-47.79 148.06,6.56 282.98,30.92 411.37,59.03 128.37,28.11 250.2,59.98 343.9,85.28 93.72,25.29 159.31,44.03 254.89,85.26 81.68,35.24 185.23,86.9 283.35,150.35 -193.99,-242 -423.49,-445.33 -670.28,-581.51 -1415.24,-780.93 -3227.3,9.25 -3547.79,1750.33 -476.99,2591.19 2039.72,4437.27 4335.15,3329.1z"/>
    </clipPath>
      <mask id="id1">
  <linearGradient id="id2" gradientUnits="userSpaceOnUse" x1="1495.35" y1="13398.57" x2="6656.32" y2="6295.52">
   <stop offset="0" style="stop-opacity:1; stop-color:white"/>
   <stop offset="1" style="stop-opacity:0; stop-color:white"/>
  </linearGradient>
       <rect style="fill:url(#id2)" x="-537.64" y="-597.1" width="8011.3" height="9708.89"/>
      </mask>
  <linearGradient id="id3" gradientUnits="userSpaceOnUse" x1="6081.78" y1="954.19" x2="1823.54" y2="8991.87">
   <stop offset="0" style="stop-opacity:1; stop-color:#831E62"/>
   <stop offset="1" style="stop-opacity:1; stop-color:#BE317F"/>
  </linearGradient>
 </defs>
 <g id="Camada_x0020_1">
  <metadata id="CorelCorpID_0Corel-Layer"/>
  <g id="_2602772049360">
   <path class="fil0" d="M5332.82 9537.8c2008.98,-969.88 2373.85,-4071.72 -92.4,-5505.55 -71.99,-41.85 -263.93,-129.07 -308.3,-164.94 33.68,-25.41 142.17,-60.89 202.37,-92.07 302.62,-156.76 528.61,-430.18 656.06,-752.11 187.7,-474.11 140.82,-1175.04 -37.13,-1648.26 -214.81,-571.15 -672.21,-985.56 -1252.29,-1175.55 -380.37,-124.58 -682.28,-114.77 -1103.92,-114.77 -192.53,0 -2290.96,-12.69 -2423.53,4.99l-0.89 3907.8 -0.29 1233.55c111.79,-153.98 706.65,-812.97 1191.73,-1054.79 135.44,-64.43 274.42,-116.57 411.59,-152.83 315.92,-83.54 503.99,-83.01 847.1,-104.04 -72.67,-69.35 -197.77,-139.88 -276.61,-205.81 -49.17,-41.09 -94.75,-88.78 -130.45,-124.5 -220.49,-220.54 -374.84,-466.15 -460.8,-793.95 -147.51,-562.52 53.74,-1152.02 411.15,-1487.64 360.82,-338.81 971.65,-516.51 1486.82,-264.41 466.08,228.08 718.95,727.09 689.74,1321.91 -262.9,115.45 -833.34,58.37 -1136.04,-125.16 -294.75,-178.69 -518.78,-522.78 -523.99,-861.25 3.17,-2.44 8.23,-9.86 9.82,-6.87l79 -40.58c336.83,-112.86 721.57,96.65 858.71,100.42l-228.38 -183.05c-701.03,-412.37 -1423.6,192.74 -1497.96,1149.04 -41.02,527.18 172.25,909.95 485.02,1168.83 341.72,282.84 671.48,390.63 1119.29,529.14 824.19,254.9 1350.71,920.65 1576.58,1725.35 353.54,1259.61 -323.44,2943.02 -1686.88,3070.94 -268.36,25.18 -518.08,14.09 -747.01,-33.66 -21.32,-3.77 90.67,19.95 -64.31,-12.35 -696.29,-145.12 -1258.69,-617.44 -1482.27,-1295.18 -329.58,-999.02 30.18,-2053.27 921.96,-2604.45 194.45,-120.19 409.98,-195.15 598.32,-238.25 188.35,-43.11 349.52,-54.34 497.6,-47.79 148.06,6.56 282.98,30.92 411.37,59.03 128.37,28.11 250.2,59.98 343.9,85.28 93.72,25.29 159.31,44.03 254.89,85.26 81.68,35.24 185.23,86.9 283.35,150.35 -193.99,-242 -423.49,-445.33 -670.28,-581.51 -1415.24,-780.93 -3227.3,9.25 -3547.79,1750.33 -476.99,2591.19 2039.72,4437.27 4335.15,3329.1z"/>
   <g style="clip-path:url(#id0)">
    <g>
     <path id="1" class="fil1 str0" style="mask:url(#id1)" d="M3691.94 8360.26c-465.04,139.88 -750.38,131 -882.32,143.28 -131.91,12.28 -110.43,45.72 61.04,173.59 865.98,645.88 2234.68,474.53 3139.38,20.7 285.8,-143.39 550.51,-367.82 736.04,-570.23 185.54,-202.41 291.92,-382.8 378.85,-591.06 86.93,-208.25 154.39,-444.38 221.87,-658.06 67.46,-213.64 134.93,-404.8 112.44,-633.46 -22.49,-228.64 -134.93,-494.78 -361.72,-837.76 -226.77,-342.96 -567.85,-762.78 -721.54,-1624.88 -153.69,-862.11 -119.95,-2166.53 -579.1,-2991.15 -459.19,-824.65 -1411.26,-1169.5 -2382.08,-1310.05 -970.81,-140.57 -1960.37,-76.86 -2666.92,311.11 -706.58,387.95 -1130.13,1100.13 -1242.58,2012.87 -112.45,912.68 86.22,2025.95 247.39,2771.86 161.18,745.91 284.88,1124.51 509.77,1175.1 224.89,50.6 551.02,-226.78 822.77,-492.92 271.75,-266.1 489.14,-521 798.59,-737.82 309.41,-216.8 710.89,-395.53 1136.32,-440.52 425.44,-44.97 874.83,43.81 1238.22,187.51 363.42,143.73 640.79,342.39 835.69,509.21 194.92,166.78 307.36,301.71 397.32,432.91 89.96,131.17 157.44,258.66 217.39,449.8 59.99,191.16 112.46,446.05 147.37,651.5 34.91,205.46 52.26,361.49 -18.96,575.13 -71.23,213.67 -231,484.94 -633.26,764.88 -402.22,279.98 -1046.94,568.6 -1511.97,708.46z"/>
    </g>
   </g>
   <path class="fil2" d="M5332.82 9537.8c2008.98,-969.88 2373.85,-4071.72 -92.4,-5505.55 -71.99,-41.85 -263.93,-129.07 -308.3,-164.94 33.68,-25.41 142.17,-60.89 202.37,-92.07 302.62,-156.76 528.61,-430.18 656.06,-752.11 187.7,-474.11 140.82,-1175.04 -37.13,-1648.26 -214.81,-571.15 -672.21,-985.56 -1252.29,-1175.55 -380.37,-124.58 -682.28,-114.77 -1103.92,-114.77 -192.53,0 -2290.96,-12.69 -2423.53,4.99l-0.89 3907.8 -0.29 1233.55c111.79,-153.98 706.65,-812.97 1191.73,-1054.79 135.44,-64.43 274.42,-116.57 411.59,-152.83 315.92,-83.54 503.99,-83.01 847.1,-104.04 -72.67,-69.35 -197.77,-139.88 -276.61,-205.81 -49.17,-41.09 -94.75,-88.78 -130.45,-124.5 -220.49,-220.54 -374.84,-466.15 -460.8,-793.95 -147.51,-562.52 53.74,-1152.02 411.15,-1487.64 360.82,-338.81 971.65,-516.51 1486.82,-264.41 466.08,228.08 718.95,727.09 689.74,1321.91 -262.9,115.45 -833.34,58.37 -1136.04,-125.16 -294.75,-178.69 -518.78,-522.78 -523.99,-861.25 3.17,-2.44 8.23,-9.86 9.82,-6.87l79 -40.58c336.83,-112.86 721.57,96.65 858.71,100.42l-228.38 -183.05c-701.03,-412.37 -1423.6,192.74 -1497.96,1149.04 -41.02,527.18 172.25,909.95 485.02,1168.83 341.72,282.84 671.48,390.63 1119.29,529.14 824.19,254.9 1350.71,920.65 1576.58,1725.35 353.54,1259.61 -323.44,2943.02 -1686.88,3070.94 -268.36,25.18 -518.08,14.09 -747.01,-33.66 -21.32,-3.77 90.67,19.95 -64.31,-12.35 -696.29,-145.12 -1258.69,-617.44 -1482.27,-1295.18 -329.58,-999.02 30.18,-2053.27 921.96,-2604.45 194.45,-120.19 409.98,-195.15 598.32,-238.25 188.35,-43.11 349.52,-54.34 497.6,-47.79 148.06,6.56 282.98,30.92 411.37,59.03 128.37,28.11 250.2,59.98 343.9,85.28 93.72,25.29 159.31,44.03 254.89,85.26 81.68,35.24 185.23,86.9 283.35,150.35 -193.99,-242 -423.49,-445.33 -670.28,-581.51 -1415.24,-780.93 -3227.3,9.25 -3547.79,1750.33 -476.99,2591.19 2039.72,4437.27 4335.15,3329.1z"/>
   <g>
    <path class="fil3 str1" d="M8891.03 8029.71l0.23 13.88 25.67 0c46.72,0 84.86,37.46 85.56,84.17l0 687.95 -755.47 -806.82 -13.65 0c0,0 12.73,78.63 12.73,173.44l0 720.78c-0.93,46.48 -38.85,83.94 -85.56,83.94l-25.68 0 -0.21 13.88 285.8 0 -0.23 -13.88 -25.66 0c-46.49,0 -84.17,-36.76 -85.57,-83.01l0 -690.72 756.62 807.03 12.73 0c0,0 -12.73,-87.64 -12.73,-176.89l0 -716.87c1.4,-46.24 39.09,-83 85.57,-83l25.68 0 0.23 -13.88 -286.06 0zm1560.68 0l0 13.88 22.67 0c39.31,0 71.46,27.98 73.3,66.82l0 547.35c-0.47,191.24 -123.94,318.88 -309.18,318.88 -176.89,0 -294.6,-134.81 -294.6,-336.91l0 -529.55c1.62,-38.84 33.78,-66.59 73.08,-66.59l22.66 0 0 -13.88 -281.89 0 0 13.88 22.67 0c40,0 72.6,28.89 73.3,68.68l0 547.81c0,216.21 154.02,360.27 384.78,360.27 224.31,0 373.93,-144.99 373.93,-362.59l0 -548.73c2.54,-38.16 34.23,-65.44 73.3,-65.44l22.67 0 0 -13.88 -256.69 0zm970.09 -1.4c-60.12,-0.23 -141.29,-14.32 -167.18,-25.19l0 174.35 13.88 -0.24 0 -24.73c0,-44.4 35.13,-80.7 79.3,-82.56l263.15 0 0 832.24c-2.07,47.18 -41.14,84.87 -88.78,84.87l-17.58 0 -0.23 13.88 303.61 0 -0.23 -13.88 -17.56 0c-48.1,0 -87.19,-38.16 -88.8,-86.01l0 -831.1 262.92 0c44.17,1.86 79.09,38.16 79.09,82.56l0 24.73 14.11 0.24 0 -174.35c-26.14,10.87 -107.08,24.96 -167.2,25.19l-468.5 0zm1195.09 1.4l0.24 13.88 17.57 0c48.57,0 87.88,38.84 88.81,87.17l0 769.81c-1.17,47.87 -40.47,86.48 -88.81,86.48l-17.57 0 -0.24 13.88 303.17 0 -0.23 -13.88 -17.58 0c-48.56,0 -87.87,-38.84 -88.8,-87.17l0 -826.93c18.04,0.69 101.98,-2.77 172.74,1.16 103.14,5.54 168.57,86.01 172.04,211.35 0.93,30.52 -2.77,63.6 -8.78,83.02 -39.3,125.1 -144.52,142.22 -216.67,144.06 -41.63,1.16 -73.3,0.46 -73.3,0.46l0 12.95c50.87,0 91.34,48.1 127.41,93.66 10.87,13.42 167.19,240.73 182.91,259.68 43.47,52.04 112.85,121.64 242.11,121.64l76.08 0 0 -13.88c-81.63,-0.7 -132.97,-43.93 -188.69,-104.98 -53.64,-58.74 -173.43,-229.39 -173.43,-229.39 -26.83,-37.93 -69.38,-83.94 -99.21,-97.58 133.43,0 235.64,-130.43 235.64,-264.55 0,-161.87 -102.91,-260.84 -271.25,-260.84l-374.16 0zm1650.43 957.34l-17.58 0c-48.57,0 -88.1,-38.84 -88.8,-87.17l0 -770.05c1.16,-47.85 40.47,-86.48 88.8,-86.48l17.58 0 0.23 -13.87 -303.63 0 0.23 13.87 17.58 0c48.33,0 87.64,38.63 88.8,86.71l0 769.82c-0.93,48.33 -40.24,87.17 -88.8,87.17l-17.58 0 -0.23 13.88 303.63 0 -0.23 -13.88zm1477.9 -391.02c-31.46,284.19 -198.17,382.24 -395.19,382.71 -233.33,-5.56 -391.49,-187.32 -391.49,-466.2 0,-276.1 155.39,-460.64 399.35,-460.64 166.72,0 302.69,86.03 344.79,248.13l11.55 0 -27.97 -196.09c-81.17,-53.42 -192.18,-93.65 -328.13,-93.65 -305.25,0 -503.66,202.56 -503.66,503.64 0,306.62 205.35,505.04 495.56,506.42 192.62,0 316.79,-87.18 389.88,-206.5l16.88 -217.82 -11.57 0zm916.44 391.02l-17.58 0c-48.56,0 -88.1,-38.84 -88.8,-87.17l0 -770.05c1.16,-47.85 40.47,-86.48 88.8,-86.48l17.58 0 0.23 -13.87 -303.63 0 0.23 13.87 17.58 0c48.33,0 87.64,38.63 88.8,86.71l0 769.82c-0.93,48.33 -40.23,87.17 -88.8,87.17l-17.58 0 -0.23 13.88 303.63 0 -0.23 -13.88zm1099.82 -976.76c-295.06,0 -498.79,202.1 -498.79,505.04 0,302.92 203.73,505.02 498.79,505.02 295.07,0 498.57,-202.1 498.57,-505.02 0,-302.94 -203.5,-505.04 -498.57,-505.04zm0 968.45c-235.41,0 -392.41,-185.24 -392.41,-463.41 0,-278.19 157,-463.43 392.41,-463.43 235.4,0 392.19,185.24 392.19,463.43 0,278.17 -156.79,463.41 -392.19,463.41zm1807.2 -949.03l0.23 13.88 25.66 0c46.73,0 84.87,37.46 85.57,84.17l0 687.95 -755.48 -806.82 -13.64 0c0,0 12.73,78.63 12.73,173.44l0 720.78c-0.93,46.48 -38.86,83.94 -85.56,83.94l-25.68 0 -0.22 13.88 285.81 0 -0.23 -13.88 -25.66 0c-46.5,0 -84.17,-36.76 -85.57,-83.01l0 -690.72 756.62 807.03 12.73 0c0,0 -12.73,-87.64 -12.73,-176.89l0 -716.87c1.39,-46.24 39.09,-83 85.56,-83l25.68 0 0.23 -13.88 -286.05 0zm1170.11 957.34l-17.57 0c-48.57,0 -88.11,-38.84 -88.8,-87.17l0 -770.05c1.16,-47.85 40.46,-86.48 88.8,-86.48l17.57 0 0.24 -13.87 -303.64 0 0.24 13.87 17.57 0c48.34,0 87.64,38.63 88.8,86.71l0 769.82c-0.92,48.33 -40.23,87.17 -88.8,87.17l-17.57 0 -0.24 13.88 303.64 0 -0.24 -13.88zm769.37 -647.7c-43.7,-40.48 -55.97,-91.8 -55.97,-127.89 0,-84.63 68.45,-159.56 170.67,-159.56 86.47,0 156.55,54.11 156.09,142.91l13.41 0 0 -153.76 0 -16.42 -55.04 0c-36.77,-8.1 -82.56,-14.34 -118.86,-14.34 -158.17,0 -243.97,117.47 -243.97,234.47 0,53.66 19.21,120.72 75.16,172.06l265.92 246.73c34.69,32.13 54.35,75.14 54.35,129.27 0,110.99 -84.64,180.36 -185.92,185.92 -123.48,6.93 -213.89,-84.64 -200.03,-227.55l-12.25 0c-21.04,62.19 -26.36,150.53 -15.95,193.32 54.58,56.42 166.95,75.84 234.93,75.84 159.56,0 259.7,-105.9 259.7,-259.45 0,-55.97 -14.11,-117.93 -69.61,-169.04l-272.63 -252.51zm1065.58 -311.04c-60.12,-0.23 -141.28,-14.32 -167.18,-25.19l0 174.35 13.88 -0.24 0 -24.73c0,-44.4 35.14,-80.7 79.31,-82.56l263.15 0 0 832.24c-2.08,47.18 -41.15,84.87 -88.79,84.87l-17.58 0 -0.23 13.88 303.62 0 -0.23 -13.88 -17.57 0c-48.1,0 -87.19,-38.16 -88.8,-86.01l0 -831.1 262.92 0c44.17,1.86 79.09,38.16 79.09,82.56l0 24.73 14.11 0.24 0 -174.35c-26.14,10.87 -107.07,24.96 -167.19,25.19l-468.51 0zm1513.29 -18.02l-12.5 0c0,30.52 -51.32,142.91 -51.32,142.91l-314.51 746.68c-28.2,61.74 -79.54,87.17 -121.63,87.17l-12.48 0 0 13.88 279.35 0 0 -13.65 -12.27 0c-35.6,0 -72.6,-31.22 -52.95,-86.24l92.72 -237.26 373.93 0 88.57 236.33c20.35,55.49 -16.88,87.17 -52.74,87.17l-12.01 0 0 13.65 312.41 0 0 -13.88 -11.8 0c-42.31,0 -93.65,-25.43 -121.86,-87.17l-370.91 -889.59zm-189.16 611.86l174.59 -445.36 167.19 445.36 -341.78 0z"/>
    <g>
     <path class="fil4" d="M33479.65 5918.89c0,-209.88 5.82,-353.66 102.91,-543.21 28.53,-55.7 61.38,-106.65 97.86,-155.01 62.82,-83.31 86.63,-102.43 155.92,-167.23 341.15,-319.04 887.24,-351.04 1284.92,-86.83 28.76,19.12 46.72,34.26 72.13,54.33 82.26,64.98 187.71,179.44 242.11,270.7 51.27,86.01 49.09,77.81 87.14,172.74 14.16,35.32 21.19,62.13 32.56,100.89 66.89,227.96 33.32,542.35 -70.44,749.23 -137.73,274.67 -405.91,502.93 -712.6,565.97 -36.78,7.55 -66.53,12.8 -107.71,18.75 -23.19,3.37 -36.86,2.46 -60.63,2.63 -76.34,0.51 2.79,10.64 -119.64,0.56 -20.33,-1.68 -42.11,0.81 -62.53,-0.73 -30.75,-2.34 -76.32,-9.97 -109.81,-16.66 -83.38,-16.67 -214.52,-62.02 -282.79,-103.64 -188.52,-114.95 -341.06,-256.2 -441.65,-457.52 -32.15,-64.37 -50.51,-108.74 -71.8,-181.06 -17.21,-58.4 -35.95,-150.89 -35.95,-223.91zm2290.88 -78.21l0 57.68 0 6.72 0 6.79c0,248.13 -114.92,521.64 -261.62,700.63 -81.07,98.91 -90.61,103.25 -175.74,182.52 -66.18,61.63 -190.12,135.82 -267.68,174.91 -194.9,98.15 -362.66,114.68 -587.97,114.68 -250.95,0 -473.27,-93.43 -660.51,-224.76 -112.49,-78.89 -141.27,-121.1 -226.75,-208.79 -63.81,-65.43 -135.03,-184.5 -176.19,-266.33 -108.16,-214.97 -117.12,-366.7 -117.12,-606.28 0,-532.87 453.37,-1037.51 970.2,-1144.2 181.03,-37.36 363.72,-37.65 544.75,2.47 87.19,19.32 153.05,45.15 226.83,75.29 121.65,49.7 269.36,158.1 357.61,246.57 53.55,53.7 95.59,99.99 141.35,160.7 77.91,103.36 115.54,181.59 160.52,296.05 14.23,36.19 26.06,75.92 35.82,111.68 32.4,118.76 36.17,204.85 36.5,313.67z"/>
     <path class="fil4" d="M13606.62 5848.67c0,-331.86 140.02,-579.05 307.45,-746.13 463.19,-462.27 1202.18,-415.43 1611,128.15 135,179.51 196.76,382.15 196.76,632.03 0,436.37 -275.88,798.28 -625.51,954.96 -58.54,26.24 -124.94,49.73 -196.03,63.95l-238.98 27.29c-56.73,-3.01 -178.85,-14.77 -232.66,-27.8 -201.73,-48.87 -366.32,-137.9 -511.19,-282.69l-118.35 -141.57c-120.74,-182.83 -192.49,-351.95 -192.49,-608.19zm-182.7 -7.03c0,497.34 249.87,835.25 597.23,1067.49 145.76,97.47 392.73,175.48 590.37,175.48 227.68,0 397.31,-19.34 588.03,-114.61 173.07,-86.46 376.03,-250.75 484.38,-414.83 20.39,-30.87 41.77,-59.43 58.75,-88.75 192.29,-331.9 218.99,-792.85 51.85,-1139.84 -37.41,-77.68 -117.78,-210.28 -179.79,-276.79 -14.74,-15.8 -23.44,-21.51 -37.52,-39.74 -45.29,-58.61 -142.84,-134.96 -200.72,-178.63 -332.91,-251.18 -833.65,-291.04 -1214.65,-120.31 -152.9,68.54 -341.74,209.21 -443.86,335.96l-67.93 86.59c-22.23,32.85 -39.24,58.69 -60.57,93.96 -99.01,163.78 -165.57,388 -165.57,614.02z"/>
     <path class="fil4" d="M31385.53 4661.88l0 2373.57c0,37.11 79.58,21.08 182.72,21.08l0 -2057.57c24.88,28.62 20.41,30.1 38.09,60.24l114.1 194.98c24.65,45.21 47.82,86.59 73.96,129.73 223.21,368.47 448.77,790.28 671.98,1161.32 51.94,86.35 99.36,171.46 149.29,258.12l113.42 195.65c42.92,71.82 -0.47,57.53 202.45,57.53l0 -2415.71 -175.7 0 0 2043.52c-19.07,-13.97 -199.69,-337.69 -221.87,-375.19l-145.95 -254.42c-24.66,-45.24 -51.04,-84.73 -74.89,-128.82 -23.62,-43.63 -49.84,-83 -74.89,-128.8 -113.42,-207.49 -258.77,-437.2 -370.24,-641.24 -36.98,-67.71 -283.88,-477.14 -292.73,-515.05 -65.02,0 -189.74,-14.14 -189.74,21.06z"/>
     <path class="fil4" d="M23507.99 7056.53l175.7 0 0 -2064.59c6.39,7.36 1.49,1.16 8.94,12.14l515.68 889.14c137.78,252.74 306.95,523.46 450,779.24l187.86 324.89c43.89,74.43 1.31,59.18 200.81,59.18l0 -2415.71 -175.7 0 0 2043.52 -222.45 -381.63c-25.29,-46.29 -49.16,-82.92 -74.86,-128.85 -116.63,-208.52 -258.27,-435.54 -367.87,-636.58 -134.81,-247.31 -334.83,-585.64 -483.24,-837.29 -44.42,-75.32 -0.02,-59.17 -214.87,-59.17l0 2415.71z"/>
     <path class="fil4" d="M19179.23 6880.97l-281.09 0 0 -1313.2c315,0 571.81,-19.47 781.11,265.76 165.69,225.75 167.22,530.3 11.66,758.21 -24.83,36.38 -45.76,55.57 -71.87,89.7l-81.29 73.26c-97.94,74.65 -218.7,126.27 -358.52,126.27zm35.12 -1502.8l-316.21 0 0 -554.77 295.13 0c137.19,0 249.91,111.21 264.21,269.76 14.18,157.17 -129.98,285.01 -243.13,285.01zm-491.89 1678.36l484.87 0c227.08,0 399.57,-100.66 514.75,-215.95 137.72,-137.85 221.82,-266.72 257.36,-473.15 41.08,-238.57 -20.09,-438.3 -111.06,-589.47 -46.26,-76.87 -105.27,-135.16 -167.35,-197.92 -40.03,-40.47 -160.52,-133.17 -226.66,-138.66 10.35,-38.75 262.6,-240.45 107.92,-543.24 -33.5,-65.54 -72.06,-109.76 -126.78,-154.21 -12.62,-10.26 -18.01,-15.82 -31.55,-24.65 -23.76,-15.47 -44.04,-27.97 -72.92,-39.49 -58.19,-23.25 -114.23,-38.97 -192.89,-38.97l-435.69 0 0 2415.71z"/>
     <path class="fil4" d="M22496.08 6052.33l-421.63 0 0 -1228.93 393.53 0c160.19,0 312.84,70.13 420,177.19 15.98,15.98 18.36,19.14 32.73,37.51 100.89,128.94 135.99,191.93 146.13,386.93 4.67,89.61 -12.71,175.29 -42.6,249.19 -81.83,202.26 -302.91,378.11 -528.16,378.11zm-604.35 -1390.45l0 2394.65 182.72 0 0 -821.62 393.53 0c19.38,0 30.54,27.75 40.78,43.5 164.6,252.95 336.63,533.84 500.3,778.12l217.86 0c-159.08,-237.39 -321.15,-502.8 -480.67,-741.57 -24.83,-37.16 -47.14,-69.78 -67.46,-108.15 82.64,-39.62 71.19,-8.4 217.87,-105.3 55.07,-36.39 131.36,-104.6 172.72,-157.45 132.96,-169.92 178.62,-304.35 178.62,-530.77 0,-227.5 -111.19,-417.56 -226.62,-531.96 -61.51,-60.96 -139.64,-121.63 -218.37,-160.99 -80.08,-40.03 -209.93,-79.52 -299.9,-79.52l-590.28 0c-16.2,0 -21.1,4.88 -21.1,21.06z"/>
     <path class="fil4" d="M27963.27 6052.33l-421.63 0 0 -1228.93 393.53 0c155.33,0 269.64,53.52 378.48,141.44 178.29,144.02 251.49,359.02 212.95,590.03 -13.41,80.41 -42.34,151.7 -85.36,216.68 -56.42,85.2 -147.89,172.14 -238.97,217.65 -61.6,30.78 -146.91,63.13 -239,63.13zm-604.34 -1390.45l0 2394.65 182.71 0 0 -821.62 393.53 0c21.21,0 33.31,27.59 41.88,42.41 11.48,19.85 19.1,31.53 32.63,51.65 24.07,35.77 43.45,68.4 66.09,102.48l400.49 625.08 217.84 0 -548.11 -849.72c61.58,-29.53 132.17,-39.64 218.96,-104.21 34.54,-25.71 57.93,-42.27 88.49,-73.1 27.37,-27.58 55.44,-52.33 80.75,-80.8 100.55,-113.05 181,-303.05 181,-465.2 0,-194.07 -25.76,-345.13 -139.44,-499.69 -78.05,-106.08 -180.77,-199.88 -300.78,-261.23 -60.88,-31.1 -204.29,-81.76 -290.62,-81.76l-604.34 0c-16.19,0 -21.08,4.88 -21.08,21.06z"/>
     <path class="fil4" d="M12454.16 6052.33l-428.67 0 0 -1228.93 400.56 0c313.02,0 597.32,279.93 597.32,582.85 0,117.6 -4.93,188.94 -53.8,290.36 -48.26,100.22 -104.33,169 -192.07,236.41 -86.1,66.16 -202.52,119.31 -323.34,119.31zm-604.34 1004.2l175.67 0 0 -821.62 400.56 0c19.96,0 60.56,75.82 72.51,96.07l131.61 205.55c20.78,34.81 42.68,64.67 65.88,102.71l198 307.74c15.26,22.74 60.35,88.13 66.06,109.55l217.86 0c-5.6,-20.92 -49.9,-85.37 -63.24,-105.35 -48.8,-72.92 -470.8,-717.91 -477.87,-744.37 28.87,-13.83 65.88,-22.16 114.85,-46.76 181.95,-91.39 328.36,-240.79 402.24,-433.7 89.73,-234.3 60.14,-526.51 -80.32,-728.47 -27.8,-39.96 -56.09,-71.39 -87.46,-109.21 -17.41,-21 -28.28,-27.17 -48.17,-43.18 -132.33,-106.42 -288.08,-204.67 -476.82,-204.67l-611.36 0 0 2415.71z"/>
     <path class="fil4" d="M29193.04 6873.94l-42.16 0 0 -2043.52c180.71,0 351.22,19.37 498.82,84.37 66.94,29.48 104.91,48.79 164.57,88.36 138.98,92.17 273.21,260.82 341.69,416.96 120.34,274.34 118.68,578.65 3.92,854.02 -98.05,235.3 -287.7,418.23 -522.07,517.6 -107.72,45.68 -293.76,82.21 -444.77,82.21zm-217.85 182.59c435.9,0 776.8,-21.4 1101.53,-345.86 199.3,-199.15 378.23,-521.51 346.47,-925.59 -10.73,-136.72 -7.4,-142.86 -41.04,-274.99 -18.64,-73.21 -36.67,-111.79 -64.64,-174.18 -42.94,-95.84 -90.37,-169.35 -155.62,-251.76 -50.64,-63.99 -95.41,-111.56 -158.55,-164.61 -60.73,-51.02 -114.46,-89.63 -187.16,-128.95 -35.11,-18.99 -73.77,-34.19 -112.09,-49.52 -38.39,-15.33 -78.89,-29.39 -120.41,-41.19 -177.08,-50.33 -388.61,-59.06 -608.49,-59.06l0 2415.71z"/>
     <path class="fil4" d="M20303.58 7056.53l1229.78 0 0 -175.56 -1054.1 0 0 -941.01 1054.1 0c0,-103.06 16.03,-182.59 -21.1,-182.59l-1033 0 0 -933.97 1054.1 0 0 -182.58 -1229.78 0 0 2415.71z"/>
     <path class="fil4" d="M10697.35 5069.19c5.27,22.66 9.82,30.89 18.1,52.14l144.41 396.4c13.06,36.33 24.73,69.01 38.57,108.93 13.52,38.94 25.63,74.53 40.8,113.72l81.37 227.68 -653.53 0c7.79,-16.24 11.39,-31.74 18.38,-51.87l311.9 -847zm-913.54 1987.34l189.73 0 78.31 -223.72c18.11,-48.41 242.12,-648.33 244.94,-682.17l794.09 0c5.75,24.68 12.66,37.51 20.05,57.2l61.68 170.1c26.79,79.4 55.35,147.92 82.59,226.45l165.95 452.14 182.71 0c-2.49,-29.91 -15.02,-54.08 -25.14,-80.22l-139.45 -387.33c-57.53,-148.68 -116.2,-331.78 -172.72,-473.46 -56.23,-140.97 -113.91,-324.95 -170.71,-468.44 -95.43,-241.13 -190.04,-547.86 -286.06,-788.57l-84.32 -231.73c-19.05,-47.8 -12.46,-60.65 -35.14,-77.25l-110.37 311.04c-95.5,241.29 -189.71,541.07 -285.21,782.39 -21.71,54.84 -36.82,104.21 -58.23,159.51 -103.56,267.73 -241.91,661.25 -341.16,937.16l-84.32 231.73c-6.81,18.91 -25.55,64.98 -27.22,85.17z"/>
     <path class="fil4" d="M26199.43 5076.21l14.06 0c9.4,40.32 24.37,70.86 37.84,109.65l242.36 670.72c12.05,33.5 28.02,83.08 43.05,111.48l-653.52 0c3.98,-47.92 311.8,-838.73 316.21,-891.85zm-906.52 1980.32l189.74 0c25.58,-53.27 132.5,-372.45 166.6,-458.52l124.24 -339.33c7.86,-22.71 12.39,-35.76 20.36,-56.9 8.8,-23.41 8.91,-51.14 33.15,-51.14l758.94 0c27.27,0 33.86,51.19 53.25,101.27l291.08 804.62 189.74 0c-4.75,-20.32 -19.87,-57.67 -27.22,-78.15l-312.68 -860.27c-36.4,-107.86 -76.49,-205.66 -114.18,-314.28l-168.64 -463.47c-19.21,-55.32 -39.11,-107.08 -58.05,-159.69 -37.96,-105.57 -78.41,-207.07 -114.14,-314.31 -16.78,-50.39 -38.73,-101.68 -56.25,-154.45 -11.72,-35.24 -52.87,-132.45 -55.36,-162.38 -23.9,17.49 -110.59,278.79 -120.34,308.11 -34.56,104.06 -77.73,206.37 -114.14,314.29 -36.4,107.86 -76.49,205.66 -114.18,314.28l-571.92 1570.32z"/>
     <path class="fil4" d="M7598.34 5785.48c0,297.92 12.69,345.72 113.36,595.96l51.12 96.39c17.95,29.79 39.38,61.24 59.29,88.22 84.77,114.82 180.25,210.23 295.14,294.95 49.89,36.76 128.17,86.51 183.89,111.17 148.87,65.88 306.64,103.93 465.42,112.44l137.05 0c149.14,-8.07 297.2,-42.67 437.63,-105.18 92.24,-41.07 182.5,-96.65 260.9,-160.62 23.5,-19.18 60.71,-48.09 76.25,-71.28 -17.05,-25.44 -39.42,-35.65 -61.58,-57.83 -31.8,-31.8 -49.46,-38.5 -64.9,-61.54 -37.91,25.38 -66.61,55.47 -106.79,82.87 -128.19,87.43 -225.61,140.11 -395.11,173.99 -93.03,18.59 -244.71,28.86 -345.59,14.2 -236.13,-34.27 -360.74,-92.88 -536.94,-228.87 -57.05,-44.04 -142.97,-136.9 -188.73,-197.62 -97.83,-129.8 -197.7,-342.39 -197.7,-567.88 0,-204.26 10.31,-336.7 100.69,-517.34 75.73,-151.37 213.28,-315.58 356.05,-409.64 182.66,-120.36 347.75,-182.55 597.34,-182.55 152.35,0 302.87,33.71 410.01,81.83 127.38,57.23 167.31,85.78 268.49,167.08 19.69,15.8 14.78,18.69 38.28,24.96 16.02,-10.72 18.96,-15.98 33.3,-29.93 15.67,-15.25 19.23,-15.25 34.9,-28.33 21.86,-18.26 50.61,-39.4 58.28,-68.15 -24.1,-6.43 -23.22,-12.83 -40.37,-29.88 -190.33,-189.17 -535.69,-300.16 -802.89,-300.16 -337.21,0 -630.79,121.21 -855.56,345.84 -70.03,69.98 -81.62,76.3 -143.33,158.75 -132.39,176.88 -237.9,423.25 -237.9,668.15z"/>
     <path class="fil4" d="M16262.92 4661.88l0 2394.65 1103.27 0 0 -175.56 -920.56 0 0 -2240.15 -161.63 0c-16.19,0 -21.08,4.88 -21.08,21.06z"/>
     <path class="fil4" d="M30781.19 7056.53l182.71 0 0 -2394.65c0,-16.18 -4.89,-21.06 -21.08,-21.06l-161.63 0 0 2415.71z"/>
    </g>
    <path class="fil3" d="M31737.7 8439.48c-30.95,-33.68 -64.03,-58.59 -99.06,-74.6 -35.18,-16.16 -73.99,-24.16 -116.43,-24.16 -34.28,0 -67.64,6.94 -100.26,20.83 -32.46,13.89 -60.86,33.23 -84.71,57.99 -24.77,25.66 -43.34,54.36 -55.73,86.06 -12.38,31.72 -18.57,66.76 -18.57,105.11 0,30.06 3.62,57.84 11.02,83.2 7.41,25.37 18.43,48.62 33.23,69.92 25.96,36.84 57.83,65.23 95.72,85.16 37.92,19.94 78.83,29.9 122.78,29.9 41.37,0 79.72,-8.6 115.06,-25.67 35.49,-17.06 67.81,-42.59 96.95,-76.56l0 102.23c-32.16,23.27 -66.74,40.93 -103.74,52.86 -36.99,11.92 -75.35,17.81 -114.92,17.81 -34.13,0 -67.49,-5.13 -99.96,-15.25 -32.46,-10.11 -62.82,-25.07 -91.21,-44.54 -47.1,-32.63 -83.2,-72.95 -108.12,-120.65 -24.91,-47.87 -37.44,-100.27 -37.44,-157.5 0,-49.83 8.3,-95.29 25.06,-136.06 16.61,-40.91 41.98,-77.91 76.25,-111.29 33.08,-31.85 69.62,-55.72 109.78,-71.42 40.17,-15.85 83.98,-23.7 131.38,-23.7 37.6,0 73.85,5.72 108.87,17.06 35.19,11.32 69.76,28.83 104.05,52.7l0 100.57zm131.51 492.87l0 -647.8 152.23 0c43.33,0 75.19,2.41 95.27,7.24 20.23,4.99 38.06,13.29 53.46,25.08 19.17,14.93 33.98,35.17 44.54,60.4 10.72,25.21 16.01,53.14 16.01,83.8 0,53 -14.8,93.47 -44.4,120.95 -29.74,27.64 -73.08,41.38 -130.31,41.38l-13.74 0 247.34 308.95 -97.84 0 -236.48 -308.95 -10.87 0 0 308.95 -75.21 0zm75.21 -582.57l0 216.54 58.74 0c60.25,0 100.57,-7.7 120.95,-23.25 20.39,-15.41 30.51,-42.44 30.51,-81.1 0,-41.53 -10.42,-70.51 -31.42,-87.28 -20.98,-16.61 -61,-24.91 -120.04,-24.91l-58.74 0zm409.66 582.57l0 -673.18 473.85 517.49 0 -492.11 73.4 0 0 673.16 -473.85 -512.04 0 486.68 -73.4 0zm941.21 -163.99l78.83 0 0 7.55c0,33.06 10.72,59.19 32.31,78.53 21.6,19.32 50.89,28.98 88.19,28.98 42.73,0 75.81,-10.88 99.06,-32.47 23.4,-21.74 35.02,-52.53 35.02,-92.4 0,-41.83 -11.92,-73.55 -35.63,-94.83 -23.71,-21.44 -58.9,-32.17 -105.55,-32.17 -5.9,0 -10.41,0 -13.43,0.15 -3.17,0.15 -6.19,0.45 -9.06,0.75l0 -63.42c2.25,0 5.72,0.16 10.25,0.46 4.68,0.3 8.17,0.45 10.43,0.45 44.55,0 78.08,-9.81 100.87,-29.15 22.65,-19.47 33.97,-48.46 33.97,-86.82 0,-33.83 -10.26,-60.7 -30.95,-80.64 -20.68,-19.93 -48.62,-29.89 -83.96,-29.89 -37.74,0 -67.19,9.21 -88.18,27.64 -21.15,18.4 -32.47,45.14 -34.28,80.17l-76.1 -0.45c3.02,-55.57 21.59,-98.3 56.02,-128.06 34.27,-29.74 82.44,-44.53 144.35,-44.53 59.51,0 106.76,15.4 141.5,46.36 34.88,30.95 52.24,72.93 52.24,125.63 0,38.34 -10.11,70.66 -30.34,97.23 -20.24,26.59 -48.49,44.55 -84.72,53.91 38.51,6.49 68.7,23.87 90.44,52.11 21.9,28.08 32.78,64.02 32.78,107.65 0,58.74 -19.18,104.81 -57.69,138.18 -38.51,33.52 -91.81,50.28 -159.91,50.28 -59.95,0 -107.66,-15.25 -143.14,-45.91 -35.49,-30.64 -53.32,-71.72 -53.32,-123.36l0 -11.93zm731.92 163.99l0 -574.42 -132.29 0 43.34 -67.04 164.14 0 0 641.46 -75.19 0zm555.23 -595.25c-35.48,0 -63.42,9.66 -84.1,28.98 -20.7,19.19 -30.96,45.46 -30.96,78.82 0,32.94 9.96,58.75 30.05,77.32 20.08,18.57 47.87,27.79 83.2,27.79 36.55,0 65.09,-9.22 85.47,-27.64 20.38,-18.42 30.51,-44.24 30.51,-77.47 0,-33.36 -10.13,-59.63 -30.51,-78.82 -20.38,-19.32 -48.32,-28.98 -83.66,-28.98zm-0.89 549.95c42.72,0 76.1,-11.48 100.1,-34.59 23.87,-22.94 35.79,-54.96 35.79,-95.87 0,-41.68 -12.07,-74.15 -36.09,-97.87 -24,-23.55 -57.38,-35.32 -99.8,-35.32 -42.15,0 -75.36,11.92 -99.68,35.64 -24.15,23.7 -36.23,56.17 -36.23,97.55 0,40.91 11.93,72.93 35.79,95.87 24,23.11 57.38,34.59 100.12,34.59zm-84.12 -297.18c-36.54,-11.63 -64.02,-29.74 -82.3,-54.65 -18.27,-24.93 -27.49,-56.49 -27.49,-94.85 0,-47.4 17.98,-86.36 54.07,-116.72 35.93,-30.35 82.9,-45.44 140.73,-45.44 59.34,0 106.46,15.24 141.5,45.89 34.88,30.66 52.39,71.57 52.39,122.46 0,35.04 -9.51,65.09 -28.53,90.17 -19.03,25.06 -46.06,42.72 -80.79,53.14 42.13,12.09 74.74,32.92 98,62.81 23.25,29.76 34.89,65.55 34.89,107.53 0,58.89 -19.19,105.25 -57.7,138.93 -38.51,33.66 -91.8,50.42 -159.91,50.42 -67.34,0 -120.5,-16.91 -159.61,-50.74 -39.1,-33.66 -58.59,-79.42 -58.59,-136.95 0,-43.04 11.64,-79.58 34.74,-109.64 23.26,-30.19 56.17,-50.89 98.6,-62.36zm445.46 19.33l-14.5 -2.71 76.86 -315.6 284.5 0 0 66.14 -231.8 0 -40.76 166.7c14.79,-7.7 30.65,-13.59 47.4,-17.51 16.77,-4.08 34.44,-6.04 53.17,-6.04 63.42,0 113.55,18.87 150.39,56.78 36.85,37.89 55.28,89.38 55.28,154.17 0,73.69 -21.3,131.97 -63.89,174.56 -42.73,42.58 -100.72,63.87 -174.1,63.87 -44.55,0 -82.59,-7.7 -114.31,-23.25 -31.71,-15.41 -58.6,-39.26 -80.79,-71.72l54.36 -63.13c14.49,29.45 33.83,51.95 58.15,67.66 24.3,15.55 52.38,23.4 84.25,23.4 46.66,0 83.95,-14.96 112.34,-44.7 28.25,-29.74 42.44,-69.46 42.44,-118.99 0,-47.11 -14.66,-85.02 -43.94,-113.4 -29.44,-28.55 -68.57,-42.74 -117.48,-42.74 -25.68,0 -49.99,3.93 -73.1,11.78 -23.25,7.7 -44.68,19.32 -64.47,34.73zm687.52 323.15l0 -574.42 -132.29 0 43.34 -67.04 164.14 0 0 641.46 -75.19 0z"/>
   </g>
  </g>
 </g>
</svg>
